<svg id="Layer_1" data-name="Layer 1" xmlns="http://www.w3.org/2000/svg" viewBox="0 0 20 22"><path d="M6,2l-.8-.6-3,4A1,1,0,0,0,2,6V20a3,3,0,0,0,3,3H19a3,3,0,0,0,3-3V6a1,1,0,0,0-.2-.6l-3-4A1,1,0,0,0,18,1H6a1,1,0,0,0-.8.4L6,2V3H17.5L20,6.33V20a1,1,0,0,1-1,1H5a1,1,0,0,1-1-1V6.33L6.8,2.6,6,2V2Z" transform="translate(-2 -1)" style="fill:#fff"/><path d="M3,7H21a1,1,0,0,0,0-2H3A1,1,0,0,0,3,7" transform="translate(-2 -1)" style="fill:#fff"/><path d="M15,10a3,3,0,0,1-6,0,1,1,0,0,0-2,0,5,5,0,0,0,10,0,1,1,0,0,0-2,0Z" transform="translate(-2 -1)" style="fill:#fff"/></svg>